<svg xmlns="http://www.w3.org/2000/svg" width="25" height="25" viewBox="0 0 25 25"><path d="M8.362,28.13c0,.1-.116.186-.262.186-.166.016-.282-.067-.282-.186,0-.1.116-.186.262-.186C8.231,27.928,8.362,28.011,8.362,28.13ZM6.794,27.9c-.035.1.066.222.217.253a.234.234,0,0,0,.313-.1c.03-.1-.066-.222-.217-.269a.256.256,0,0,0-.312.119Zm2.228-.088c-.146.036-.247.134-.232.253.015.1.146.171.3.134s.247-.134.232-.238S9.168,27.794,9.022,27.809ZM12.339,8A12.243,12.243,0,0,0,0,20.614,12.941,12.941,0,0,0,8.543,32.979c.645.119.872-.289.872-.626,0-.321-.015-2.088-.015-3.174,0,0-3.528.775-4.269-1.541,0,0-.575-1.5-1.4-1.892,0,0-1.154-.812.081-.8a2.65,2.65,0,0,1,1.946,1.334,2.627,2.627,0,0,0,3.674,1.08,2.9,2.9,0,0,1,.806-1.742c-2.818-.321-5.66-.739-5.66-5.712a3.969,3.969,0,0,1,1.19-3.045,5,5,0,0,1,.131-3.51c1.053-.336,3.478,1.4,3.478,1.4a11.621,11.621,0,0,1,6.331,0s2.424-1.737,3.478-1.4a5,5,0,0,1,.131,3.51,4.065,4.065,0,0,1,1.3,3.045c0,4.989-2.969,5.387-5.786,5.712a3.1,3.1,0,0,1,.857,2.4c0,1.742-.015,3.9-.015,4.322,0,.336.232.744.872.626A12.825,12.825,0,0,0,25,20.614,12.51,12.51,0,0,0,12.339,8ZM4.9,25.83c-.066.052-.05.171.035.269.081.083.2.119.262.052.066-.052.05-.171-.035-.269C5.081,25.8,4.965,25.762,4.9,25.83Zm-.544-.419c-.035.067.015.15.116.2a.148.148,0,0,0,.217-.036c.035-.067-.015-.15-.116-.2C4.471,25.344,4.39,25.359,4.355,25.411Zm1.633,1.84c-.081.067-.05.222.066.321.116.119.262.134.328.052.066-.067.035-.222-.066-.321C6.2,27.184,6.053,27.168,5.988,27.251Zm-.575-.76c-.081.052-.081.186,0,.3s.217.171.282.119a.24.24,0,0,0,0-.321c-.071-.119-.2-.171-.282-.1Z" transform="translate(0 -8)"/></svg>